<svg xmlns="http://www.w3.org/2000/svg" xmlns:xlink="http://www.w3.org/1999/xlink" width="1920" height="1080" viewBox="0 0 1920 1080">
  <defs>
    <style>
      .cls-1 {
        clip-path: url(#clip-웹_1920_2);
      }

      .cls-10, .cls-2, .cls-31, .cls-7, .cls-8 {
        fill: #fff;
      }

      .cls-15, .cls-19, .cls-3, .cls-32 {
        fill: #f63;
      }

      .cls-3 {
        font-size: 50px;
        font-family: NotoSans-ExtraBold, Noto Sans;
        font-weight: 800;
      }

      .cls-11, .cls-13, .cls-14, .cls-15, .cls-16, .cls-17, .cls-19, .cls-20, .cls-21, .cls-22, .cls-23, .cls-26, .cls-29, .cls-3, .cls-32, .cls-33, .cls-34, .cls-36, .cls-38, .cls-39, .cls-40, .cls-5 {
        letter-spacing: 0.001em;
      }

      .cls-27, .cls-30, .cls-37, .cls-4, .cls-42, .cls-9 {
        fill: none;
      }

      .cls-10, .cls-4 {
        stroke: #707070;
      }

      .cls-5 {
        fill: rgba(0,0,0,0.47);
      }

      .cls-16, .cls-19, .cls-39, .cls-5 {
        font-size: 25px;
      }

      .cls-11, .cls-19, .cls-20, .cls-21, .cls-5 {
        font-family: MalgunGothicBold, Malgun Gothic;
      }

      .cls-6 {
        font-family: NotoSans-Bold, Noto Sans;
        font-weight: 700;
      }

      .cls-27, .cls-7 {
        stroke: #f63;
      }

      .cls-8, .cls-9 {
        stroke: #fff;
        stroke-width: 5px;
      }

      .cls-8 {
        stroke-linejoin: round;
      }

      .cls-9 {
        stroke-linecap: round;
      }

      .cls-11, .cls-17, .cls-21 {
        font-size: 21px;
      }

      .cls-12 {
        font-family: NotoSans-SemiBold, Noto Sans;
        font-weight: 600;
      }

      .cls-13, .cls-14, .cls-15, .cls-38 {
        font-size: 26px;
      }

      .cls-13, .cls-15, .cls-16, .cls-18, .cls-26, .cls-29 {
        font-family: SegoeUI, Segoe UI;
      }

      .cls-14, .cls-23, .cls-32, .cls-33, .cls-35, .cls-36, .cls-40 {
        font-family: NotoSans-Regular, Noto Sans;
      }

      .cls-17, .cls-22, .cls-24, .cls-34, .cls-38, .cls-39 {
        font-family: MalgunGothic, Malgun Gothic;
      }

      .cls-20, .cls-22, .cls-23, .cls-26 {
        font-size: 20px;
      }

      .cls-21 {
        opacity: 0.64;
      }

      .cls-25 {
        fill: #ffcdbc;
      }

      .cls-27 {
        stroke-width: 3px;
      }

      .cls-28 {
        fill: #434343;
      }

      .cls-29, .cls-33, .cls-34 {
        fill: #656565;
      }

      .cls-29 {
        font-size: 13px;
      }

      .cls-30 {
        stroke: #ff8961;
        stroke-width: 1.5px;
      }

      .cls-32, .cls-40 {
        font-size: 15px;
      }

      .cls-33, .cls-34, .cls-36 {
        font-size: 16px;
      }

      .cls-36 {
        fill: gray;
      }

      .cls-37 {
        stroke: rgba(0,0,0,0.44);
        stroke-width: 0.5px;
      }

      .cls-40 {
        fill: #4a4a4a;
      }

      .cls-41, .cls-43, .cls-44 {
        stroke: none;
      }

      .cls-43 {
        fill: #f63;
      }

      .cls-44 {
        fill: #707070;
      }

      .cls-45 {
        filter: url(#선_27);
      }

      .cls-46 {
        filter: url(#선_1);
      }

      .cls-47 {
        filter: url(#사각형_1);
      }
    </style>
    <filter id="사각형_1" x="-7" y="-6" width="1938" height="112" filterUnits="userSpaceOnUse">
      <feOffset dy="3" input="SourceAlpha"/>
      <feGaussianBlur stdDeviation="3" result="blur"/>
      <feFlood flood-color="#343232" flood-opacity="0.812"/>
      <feComposite operator="in" in2="blur"/>
      <feComposite in="SourceGraphic"/>
    </filter>
    <filter id="선_1" x="9" y="980" width="1938" height="19" filterUnits="userSpaceOnUse">
      <feOffset dy="3" input="SourceAlpha"/>
      <feGaussianBlur stdDeviation="3" result="blur-2"/>
      <feFlood flood-opacity="0.161"/>
      <feComposite operator="in" in2="blur-2"/>
      <feComposite in="SourceGraphic"/>
    </filter>
    <filter id="선_27" x="-9" y="980" width="1938" height="19" filterUnits="userSpaceOnUse">
      <feOffset dy="3" input="SourceAlpha"/>
      <feGaussianBlur stdDeviation="3" result="blur-3"/>
      <feFlood flood-opacity="0.161"/>
      <feComposite operator="in" in2="blur-3"/>
      <feComposite in="SourceGraphic"/>
    </filter>
    <clipPath id="clip-웹_1920_2">
      <rect width="1920" height="1080"/>
    </clipPath>
  </defs>
  <g id="웹_1920_2" data-name="웹 1920 – 2" class="cls-1">
    <rect class="cls-2" width="1920" height="1080"/>
    <g class="cls-47" transform="matrix(1, 0, 0, 1, 0, 0)">
      <rect id="사각형_1-2" data-name="사각형 1" class="cls-2" width="1920" height="94" transform="translate(2)"/>
    </g>
    <text id="hwASEON" class="cls-3" transform="translate(150 66)"><tspan x="-129.375" y="0">HWASEON</tspan></text>
    <g class="cls-46" transform="matrix(1, 0, 0, 1, 0, 0)">
      <line id="선_1-2" data-name="선 1" class="cls-4" x2="1920" transform="translate(18 986.5)"/>
    </g>
    <text id="제품_분석_및_트래킹" data-name="제품 분석 및 트래킹" class="cls-5" transform="translate(930 137)"><tspan x="-109.875" y="0">제품</tspan><tspan class="cls-6" y="0"> </tspan><tspan y="0">분석</tspan><tspan class="cls-6" y="0"> </tspan><tspan y="0">및</tspan><tspan class="cls-6" y="0"> </tspan><tspan y="0">트래킹</tspan></text>
    <text id="대량키워드_요약" data-name="대량키워드 요약" class="cls-5" transform="translate(1304 137)"><tspan x="-90.837" y="0">대량키워드</tspan><tspan class="cls-6" y="0"> </tspan><tspan y="0">요약</tspan></text>
    <g id="사각형_2" data-name="사각형 2" class="cls-7" transform="translate(299 26)">
      <rect class="cls-41" width="433" height="42" rx="11"/>
      <rect class="cls-42" x="0.5" y="0.5" width="432" height="41" rx="10.5"/>
    </g>
    <g id="그룹_3" data-name="그룹 3" transform="translate(-147 -191)">
      <g id="그룹_2" data-name="그룹 2" transform="translate(891 228)">
        <g id="타원_1" data-name="타원 1" class="cls-8">
          <circle class="cls-41" cx="10" cy="10" r="10"/>
          <circle class="cls-42" cx="10" cy="10" r="7.5"/>
        </g>
        <line id="선_2" data-name="선 2" class="cls-9" x2="9.924" y2="9.924" transform="translate(18.076 16.658)"/>
      </g>
    </g>
    <g id="사각형_3" data-name="사각형 3" class="cls-10" transform="translate(240 184)">
      <rect class="cls-41" width="490" height="185"/>
      <rect class="cls-42" x="0.5" y="0.5" width="489" height="184"/>
    </g>
    <text id="최근_30일간_검색량" data-name="최근 30일간 검색량" class="cls-11" transform="translate(272 216)"><tspan x="0" y="0">최근</tspan><tspan class="cls-12" y="0" xml:space="preserve"> 30</tspan><tspan y="0">일간</tspan><tspan class="cls-12" y="0"> </tspan><tspan y="0">검색량</tspan></text>
    <line id="선_3" data-name="선 3" class="cls-4" x2="489.472" transform="translate(240 234.05)"/>
    <text id="PC" class="cls-13" transform="translate(303 275)"><tspan x="-15.343" y="0">PC</tspan></text>
    <text id="Mobile" class="cls-14" transform="translate(414 275)"><tspan x="-41.756" y="0">Mobile</tspan></text>
    <text id="Total" class="cls-15" transform="translate(533 275)"><tspan x="-27.379" y="0">Total</tspan></text>
    <text id="_20_" data-name="20% ↑" class="cls-16" transform="translate(659 330)"><tspan x="-33.082" y="0">20% ↑</tspan></text>
    <text id="전월_대비" data-name="전월 대비" class="cls-17" transform="translate(661 274)"><tspan x="-44.918" y="0">전월</tspan><tspan class="cls-18" y="0"> </tspan><tspan y="0">대비</tspan></text>
    <text id="_31_600" data-name="31,600" class="cls-15" transform="translate(532 330)"><tspan x="-37.922" y="0">31,600</tspan></text>
    <text id="_20_800" data-name="20,800" class="cls-13" transform="translate(413 330)"><tspan x="-37.922" y="0">20,800</tspan></text>
    <text id="_10_800" data-name="10,800" class="cls-13" transform="translate(306 330)"><tspan x="-37.922" y="0">10,800</tspan></text>
    <text id="키워드_분석" data-name="키워드 분석" class="cls-19" transform="translate(581 137)"><tspan x="-65.813" y="0">키워드</tspan><tspan class="cls-6" y="0"> </tspan><tspan y="0">분석</tspan></text>
    <text id="폼클렌징" class="cls-20" transform="translate(358 56)"><tspan x="-40.03" y="0">폼클렌징</tspan></text>
    <g id="그룹_18" data-name="그룹 18" transform="translate(0 -4)">
      <g id="사각형_6" data-name="사각형 6" class="cls-10" transform="translate(240 397)">
        <rect class="cls-41" width="490" height="185"/>
        <rect class="cls-42" x="0.5" y="0.5" width="489" height="184"/>
      </g>
      <text id="최근_30일간_컨텐츠_발행량" data-name="최근 30일간 컨텐츠 발행량" class="cls-11" transform="translate(272 427)"><tspan x="0" y="0">최근</tspan><tspan class="cls-12" y="0" xml:space="preserve"> 30</tspan><tspan y="0">일간</tspan><tspan class="cls-12" y="0"> </tspan><tspan y="0">컨텐츠</tspan><tspan class="cls-12" y="0"> </tspan><tspan y="0">발행량</tspan></text>
      <path id="패스_5" data-name="패스 5" class="cls-4" d="M0,0H489.472" transform="translate(240 445)"/>
      <text id="blog" class="cls-13" transform="translate(307 492)"><tspan x="-26.102" y="0">blog</tspan></text>
      <text id="cafe" class="cls-13" transform="translate(414 492)"><tspan x="-23.525" y="0">cafe</tspan></text>
      <text id="Total-2" data-name="Total" class="cls-15" transform="translate(533 492)"><tspan x="-27.379" y="0">Total</tspan></text>
      <text id="_30_" data-name="30% ↑" class="cls-16" transform="translate(659 548)"><tspan x="-33.082" y="0">30% ↑</tspan></text>
      <text id="전월_대비-2" data-name="전월 대비" class="cls-17" transform="translate(661 491)"><tspan x="-44.918" y="0">전월</tspan><tspan class="cls-18" y="0"> </tspan><tspan y="0">대비</tspan></text>
      <text id="_31_600-2" data-name="31,600" class="cls-15" transform="translate(532 548)"><tspan x="-37.922" y="0">31,600</tspan></text>
      <text id="_20_800-2" data-name="20,800" class="cls-13" transform="translate(413 548)"><tspan x="-37.922" y="0">20,800</tspan></text>
      <text id="_10_800-2" data-name="10,800" class="cls-13" transform="translate(306 548)"><tspan x="-37.922" y="0">10,800</tspan></text>
    </g>
    <text id="연관검색어_현황_월평균_top_20_연관도_" data-name="연관검색어 현황 (월평균)  top 20 (연관도)" class="cls-21" transform="translate(270 757)"><tspan x="0" y="0">연관검색어</tspan><tspan class="cls-12" y="0"> </tspan><tspan y="0">현황</tspan><tspan class="cls-12" y="0" xml:space="preserve"> (</tspan><tspan y="0">월평균</tspan><tspan class="cls-12" y="0" xml:space="preserve">)  top 20 (</tspan><tspan y="0">연관도</tspan><tspan class="cls-12" y="0">)</tspan></text>
    <line id="선_5" data-name="선 5" class="cls-4" x2="1440" transform="translate(240 773.5)"/>
    <text id="키워드" class="cls-22" transform="translate(345 815)"><tspan x="-30.02" y="0">키워드</tspan></text>
    <text id="PC-2" data-name="PC" class="cls-23" transform="translate(486 814)"><tspan x="-12.38" y="0">PC</tspan></text>
    <text id="Mobile-2" data-name="Mobile" class="cls-23" transform="translate(653 814)"><tspan x="-32.12" y="0">Mobile</tspan></text>
    <text id="Total-3" data-name="Total" class="cls-23" transform="translate(793 814)"><tspan x="-22.75" y="0">Total</tspan></text>
    <text id="PC_클릭수" data-name="PC  클릭수" class="cls-23" transform="translate(960 815)"><tspan x="-47.63" y="0" xml:space="preserve">PC  </tspan><tspan class="cls-24" y="0">클릭수</tspan></text>
    <text id="Mobile_클릭수" data-name="Mobile 클릭수" class="cls-23" transform="translate(1165 815)"><tspan x="-64.76" y="0">Mobile </tspan><tspan class="cls-24" y="0">클릭수</tspan></text>
    <text id="PC_CPC_1위" data-name="PC CPC 1위" class="cls-23" transform="translate(1370 815)"><tspan x="-52.06" y="0">PC CPC 1</tspan><tspan class="cls-24" y="0">위</tspan></text>
    <text id="Mobile_CPC_1위" data-name="Mobile CPC 1위" class="cls-23" transform="translate(1580 815)"><tspan x="-71.8" y="0">Mobile CPC 1</tspan><tspan class="cls-24" y="0">위</tspan></text>
    <rect id="사각형_7" data-name="사각형 7" class="cls-25" width="1440" height="42" transform="translate(240 838)"/>
    <text id="폼클렌징-2" data-name="폼클렌징" class="cls-22" transform="translate(345 866)"><tspan x="-40.03" y="0">폼클렌징</tspan></text>
    <text id="클렌징폼" class="cls-22" transform="translate(345 917)"><tspan x="-40.03" y="0">클렌징폼</tspan></text>
    <text id="폼클렌징추천" class="cls-22" transform="translate(345 968)"><tspan x="-60.05" y="0">폼클렌징추천</tspan></text>
    <text id="_11_000" data-name="11,000" class="cls-26" transform="translate(503 868)"><tspan x="-29.171" y="0">11,000</tspan></text>
    <text id="_11_000-2" data-name="11,000" class="cls-26" transform="translate(503 919)"><tspan x="-29.171" y="0">11,000</tspan></text>
    <text id="_11_000-3" data-name="11,000" class="cls-26" transform="translate(503 970)"><tspan x="-29.171" y="0">11,000</tspan></text>
    <text id="_21_600" data-name="21,600" class="cls-26" transform="translate(653 868)"><tspan x="-29.171" y="0">21,600</tspan></text>
    <text id="_21_600-2" data-name="21,600" class="cls-26" transform="translate(653 919)"><tspan x="-29.171" y="0">21,600</tspan></text>
    <text id="_21_600-3" data-name="21,600" class="cls-26" transform="translate(653 970)"><tspan x="-29.171" y="0">21,600</tspan></text>
    <text id="_31_600-3" data-name="31,600" class="cls-26" transform="translate(793 868)"><tspan x="-29.171" y="0">31,600</tspan></text>
    <text id="_31_600-4" data-name="31,600" class="cls-26" transform="translate(793 919)"><tspan x="-29.171" y="0">31,600</tspan></text>
    <text id="_31_600-5" data-name="31,600" class="cls-26" transform="translate(793 970)"><tspan x="-29.171" y="0">31,600</tspan></text>
    <text id="_103_0.52_" data-name="103 (0.52%)" class="cls-26" transform="translate(960 868)"><tspan x="-51.57" y="0">103 (0.52%)</tspan></text>
    <text id="_103_0.52_2" data-name="103 (0.52%)" class="cls-26" transform="translate(960 919)"><tspan x="-51.57" y="0">103 (0.52%)</tspan></text>
    <text id="_103_0.52_3" data-name="103 (0.52%)" class="cls-26" transform="translate(960 970)"><tspan x="-51.57" y="0">103 (0.52%)</tspan></text>
    <text id="_103_0.52_4" data-name="103 (0.52%)" class="cls-26" transform="translate(1165 867)"><tspan x="-51.57" y="0">103 (0.52%)</tspan></text>
    <text id="_103_0.52_5" data-name="103 (0.52%)" class="cls-26" transform="translate(1165 918)"><tspan x="-51.57" y="0">103 (0.52%)</tspan></text>
    <text id="_103_0.52_6" data-name="103 (0.52%)" class="cls-26" transform="translate(1165 969)"><tspan x="-51.57" y="0">103 (0.52%)</tspan></text>
    <text id="_1_200원" data-name="1,200원" class="cls-26" transform="translate(1369 868)"><tspan x="-33.78" y="0">1,200</tspan><tspan class="cls-24" y="0">원</tspan></text>
    <text id="_110원" data-name="110원" class="cls-26" transform="translate(1369 919)"><tspan x="-26.202" y="0">110</tspan><tspan class="cls-24" y="0">원</tspan></text>
    <text id="_200원" data-name="200원" class="cls-26" transform="translate(1369 970)"><tspan x="-26.202" y="0">200</tspan><tspan class="cls-24" y="0">원</tspan></text>
    <text id="_1_200원-2" data-name="1,200원" class="cls-26" transform="translate(1580 869)"><tspan x="-33.78" y="0">1,200</tspan><tspan class="cls-24" y="0">원</tspan></text>
    <text id="_110원-2" data-name="110원" class="cls-26" transform="translate(1580 920)"><tspan x="-26.202" y="0">110</tspan><tspan class="cls-24" y="0">원</tspan></text>
    <text id="_200원-2" data-name="200원" class="cls-26" transform="translate(1580 971)"><tspan x="-26.202" y="0">200</tspan><tspan class="cls-24" y="0">원</tspan></text>
    <path id="패스_1" data-name="패스 1" class="cls-27" d="M0,0H144" transform="translate(509.5 155.5)"/>
    <path id="다각형_1" data-name="다각형 1" class="cls-28" d="M7.162,4.289a2,2,0,0,1,3.677,0l5.967,13.923A2,2,0,0,1,14.967,21H3.033a2,2,0,0,1-1.838-2.788Z" transform="translate(380 796)"/>
    <path id="다각형_2" data-name="다각형 2" class="cls-28" d="M7.162,4.289a2,2,0,0,1,3.677,0l5.967,13.923A2,2,0,0,1,14.967,21H3.033a2,2,0,0,1-1.838-2.788Z" transform="translate(818 796)"/>
    <path id="다각형_3" data-name="다각형 3" class="cls-28" d="M7.162,4.289a2,2,0,0,1,3.677,0l5.967,13.923A2,2,0,0,1,14.967,21H3.033a2,2,0,0,1-1.838-2.788Z" transform="translate(1010 796)"/>
    <path id="다각형_4" data-name="다각형 4" class="cls-28" d="M7.162,4.289a2,2,0,0,1,3.677,0l5.967,13.923A2,2,0,0,1,14.967,21H3.033a2,2,0,0,1-1.838-2.788Z" transform="translate(1230 796)"/>
    <path id="다각형_5" data-name="다각형 5" class="cls-28" d="M7.162,4.289a2,2,0,0,1,3.677,0l5.967,13.923A2,2,0,0,1,14.967,21H3.033a2,2,0,0,1-1.838-2.788Z" transform="translate(1425 796)"/>
    <path id="다각형_6" data-name="다각형 6" class="cls-28" d="M7.162,4.289a2,2,0,0,1,3.677,0l5.967,13.923A2,2,0,0,1,14.967,21H3.033a2,2,0,0,1-1.838-2.788Z" transform="translate(1653 796)"/>
    <path id="다각형_7" data-name="다각형 7" class="cls-28" d="M7.162,4.289a2,2,0,0,1,3.677,0l5.967,13.923A2,2,0,0,1,14.967,21H3.033a2,2,0,0,1-1.838-2.788Z" transform="translate(686 796)"/>
    <path id="다각형_8" data-name="다각형 8" class="cls-28" d="M7.162,4.289a2,2,0,0,1,3.677,0l5.967,13.923A2,2,0,0,1,14.967,21H3.033a2,2,0,0,1-1.838-2.788Z" transform="translate(501 796)"/>
    <line id="선_6" data-name="선 6" class="cls-4" x1="1" y2="466.494" transform="translate(802.5 234.05)"/>
    <line id="선_7" data-name="선 7" class="cls-4" x2="884" transform="translate(795.5 701.175)"/>
    <text id="_35_000" data-name="35,000" class="cls-29" transform="translate(765.5 703.814)"><tspan x="-18.961" y="0">35,000</tspan></text>
    <text id="_40_000" data-name="40,000" class="cls-29" transform="translate(765.5 601.193)"><tspan x="-18.961" y="0">40,000</tspan></text>
    <text id="_45_000" data-name="45,000" class="cls-29" transform="translate(765.5 483.942)"><tspan x="-18.961" y="0">45,000</tspan></text>
    <text id="_50_000" data-name="50,000" class="cls-29" transform="translate(765.5 369.156)"><tspan x="-18.961" y="0">50,000</tspan></text>
    <text id="_55_000" data-name="55,000" class="cls-29" transform="translate(765.5 254.455)"><tspan x="-18.961" y="0">55,000</tspan></text>
    <line id="선_12" data-name="선 12" class="cls-30" y1="77.692" x2="100.5" transform="translate(902.5 403.506)"/>
    <line id="선_14" data-name="선 14" class="cls-30" x1="107.5" y1="168.201" transform="translate(1002.5 403.866)"/>
    <line id="선_15" data-name="선 15" class="cls-30" y1="338.065" x2="99.111" transform="translate(1110.5 234.05)"/>
    <line id="선_16" data-name="선 16" class="cls-30" x1="101.761" y1="442.739" transform="translate(1210 234.05)"/>
    <line id="선_17" data-name="선 17" class="cls-30" y1="407.898" x2="101.91" transform="translate(1312 268.89)"/>
    <line id="선_18" data-name="선 18" class="cls-30" x1="103.5" y1="309.494" transform="translate(1414 268.89)"/>
    <line id="선_19" data-name="선 19" class="cls-30" y1="88.685" x2="103.5" transform="translate(1516 489.179)"/>
    <line id="선_20" data-name="선 20" class="cls-30" x1="60" y1="65.458" transform="translate(1619.5 486.405)"/>
    <line id="선_13" data-name="선 13" class="cls-30" y1="127.749" x2="100" transform="translate(803 480.641)"/>
    <g id="패스_2" data-name="패스 2" class="cls-31" transform="translate(1029.347 186)">
      <path class="cls-41" d="M 45.14313125610352 26.69465827941895 L 13.59733009338379 26.69465827941895 C 10.09890937805176 26.69465827941895 6.809879779815674 25.33229827880859 4.336119651794434 22.85853958129883 C 1.862359762191772 20.38477897644043 0.4999997317790985 17.09574890136719 0.4999997317790985 13.59732913970947 C 0.4999997317790985 10.09890937805176 1.862359762191772 6.809879302978516 4.336119651794434 4.336119174957275 C 6.809879779815674 1.862359166145325 10.09890937805176 0.4999991357326508 13.59733009338379 0.4999991357326508 L 45.14313125610352 0.4999991357326508 C 48.64154815673828 0.4999991357326508 51.93058013916016 1.862359166145325 54.40433883666992 4.336119174957275 C 56.87810134887695 6.809879302978516 58.24045944213867 10.09890937805176 58.24045944213867 13.59732913970947 C 58.24045944213867 17.09574890136719 56.87810134887695 20.38477897644043 54.40433883666992 22.85853958129883 C 51.93058013916016 25.33229827880859 48.64154815673828 26.69465827941895 45.14313125610352 26.69465827941895 Z"/>
      <path class="cls-43" d="M 13.59732818603516 1 C 10.23246002197266 1 7.068988800048828 2.310348510742188 4.689670562744141 4.689668655395508 C 2.310348510742188 7.068988800048828 1 10.23246002197266 1 13.59732913970947 C 1 16.96220016479492 2.310348510742188 20.12566947937012 4.689670562744141 22.50498962402344 C 7.068988800048828 24.88430976867676 10.23246002197266 26.19465827941895 13.59732818603516 26.19465827941895 L 45.14312744140625 26.19465827941895 C 48.50799942016602 26.19465827941895 51.67147064208984 24.88430976867676 54.05078887939453 22.50498962402344 C 56.43011093139648 20.12566947937012 57.74045944213867 16.96220016479492 57.74045944213867 13.59732913970947 C 57.74045944213867 10.23246002197266 56.43011093139648 7.068988800048828 54.05078887939453 4.689668655395508 C 51.67147064208984 2.310348510742188 48.50799942016602 1 45.14312744140625 1 L 13.59732818603516 1 M 13.59732818603516 0 L 45.14312744140625 0 C 52.65272903442383 0 58.74045944213867 6.087728500366211 58.74045944213867 13.59732913970947 C 58.74045944213867 21.10692977905273 52.65272903442383 27.19465827941895 45.14312744140625 27.19465827941895 L 13.59732818603516 27.19465827941895 C 6.087730407714844 27.19465827941895 0 21.10692977905273 0 13.59732913970947 C 0 6.087728500366211 6.087730407714844 0 13.59732818603516 0 Z"/>
    </g>
    <g id="패스_4" data-name="패스 4" class="cls-31" transform="translate(1029.347 186)">
      <path class="cls-41" d="M 45.14313125610352 26.69465827941895 L 13.59733009338379 26.69465827941895 C 10.09890937805176 26.69465827941895 6.809879779815674 25.33229827880859 4.336119651794434 22.85853958129883 C 1.862359762191772 20.38477897644043 0.4999997317790985 17.09574890136719 0.4999997317790985 13.59732913970947 C 0.4999997317790985 10.09890937805176 1.862359762191772 6.809879302978516 4.336119651794434 4.336119174957275 C 6.809879779815674 1.862359166145325 10.09890937805176 0.4999991357326508 13.59733009338379 0.4999991357326508 L 45.14313125610352 0.4999991357326508 C 48.64154815673828 0.4999991357326508 51.93058013916016 1.862359166145325 54.40433883666992 4.336119174957275 C 56.87810134887695 6.809879302978516 58.24045944213867 10.09890937805176 58.24045944213867 13.59732913970947 C 58.24045944213867 17.09574890136719 56.87810134887695 20.38477897644043 54.40433883666992 22.85853958129883 C 51.93058013916016 25.33229827880859 48.64154815673828 26.69465827941895 45.14313125610352 26.69465827941895 Z"/>
      <path class="cls-43" d="M 13.59732818603516 1 C 10.23246002197266 1 7.068988800048828 2.310348510742188 4.689670562744141 4.689668655395508 C 2.310348510742188 7.068988800048828 1 10.23246002197266 1 13.59732913970947 C 1 16.96220016479492 2.310348510742188 20.12566947937012 4.689670562744141 22.50498962402344 C 7.068988800048828 24.88430976867676 10.23246002197266 26.19465827941895 13.59732818603516 26.19465827941895 L 45.14312744140625 26.19465827941895 C 48.50799942016602 26.19465827941895 51.67147064208984 24.88430976867676 54.05078887939453 22.50498962402344 C 56.43011093139648 20.12566947937012 57.74045944213867 16.96220016479492 57.74045944213867 13.59732913970947 C 57.74045944213867 10.23246002197266 56.43011093139648 7.068988800048828 54.05078887939453 4.689668655395508 C 51.67147064208984 2.310348510742188 48.50799942016602 1 45.14312744140625 1 L 13.59732818603516 1 M 13.59732818603516 0 L 45.14312744140625 0 C 52.65272903442383 0 58.74045944213867 6.087728500366211 58.74045944213867 13.59732913970947 C 58.74045944213867 21.10692977905273 52.65272903442383 27.19465827941895 45.14312744140625 27.19465827941895 L 13.59732818603516 27.19465827941895 C 6.087730407714844 27.19465827941895 0 21.10692977905273 0 13.59732913970947 C 0 6.087728500366211 6.087730407714844 0 13.59732818603516 0 Z"/>
    </g>
    <text id="_1개월" data-name="1개월" class="cls-32" transform="translate(1057 204)"><tspan x="-19.305" y="0">1</tspan><tspan class="cls-24" y="0">개월</tspan></text>
    <g id="사각형_9" data-name="사각형 9" class="cls-10" transform="translate(1104 186)">
      <rect class="cls-41" width="59" height="27" rx="13"/>
      <rect class="cls-42" x="0.5" y="0.5" width="58" height="26" rx="12.5"/>
    </g>
    <g id="사각형_10" data-name="사각형 10" class="cls-10" transform="translate(1179 186)">
      <rect class="cls-41" width="59" height="27" rx="13"/>
      <rect class="cls-42" x="0.5" y="0.5" width="58" height="26" rx="12.5"/>
    </g>
    <text id="_1년" data-name="1년" class="cls-33" transform="translate(1134 205)"><tspan x="-12.584" y="0">1</tspan><tspan class="cls-24" y="0">년</tspan></text>
    <text id="_1년-2" data-name="1년" class="cls-33" transform="translate(1134 205)"><tspan x="-12.584" y="0">1</tspan><tspan class="cls-24" y="0">년</tspan></text>
    <text id="_1년-3" data-name="1년" class="cls-33" transform="translate(1413 205)"><tspan x="-12.584" y="0">1</tspan><tspan class="cls-24" y="0">년</tspan></text>
    <text id="_5년" data-name="5년" class="cls-33" transform="translate(1209 205)"><tspan x="-12.584" y="0">5</tspan><tspan class="cls-24" y="0">년</tspan></text>
    <g id="패스_3" data-name="패스 3" class="cls-31" transform="translate(1361.122 186)">
      <path class="cls-41" d="M 120.2003936767578 26.69466209411621 L 13.59732341766357 26.69466209411621 C 10.09890747070313 26.69466209411621 6.809890270233154 25.33229637145996 4.336123943328857 22.85854530334473 C 1.862373828887939 20.38477897644043 0.5000070929527283 17.09574508666992 0.5000070929527283 13.59732913970947 C 0.5000070929527283 10.09891223907471 1.862373828887939 6.809879302978516 4.336123943328857 4.336112499237061 C 6.809890270233154 1.862362504005432 10.09890747070313 0.4999957978725433 13.59732341766357 0.4999957978725433 L 120.2003936767578 0.4999957978725433 C 123.6988067626953 0.4999957978725433 126.9878387451172 1.862362504005432 129.4616088867188 4.336112499237061 C 131.9353637695313 6.809879302978516 133.2977294921875 10.09891223907471 133.2977294921875 13.59732913970947 C 133.2977294921875 17.09574508666992 131.9353637695313 20.38477897644043 129.4616088867188 22.85854530334473 C 126.9878387451172 25.33229637145996 123.6988067626953 26.69466209411621 120.2003936767578 26.69466209411621 Z"/>
      <path class="cls-44" d="M 13.59732818603516 1.000001907348633 C 10.23246002197266 1.000001907348633 7.068984985351563 2.310346603393555 4.689682006835938 4.689674377441406 C 2.310348510742188 7.06898307800293 1 10.23245620727539 1 13.59732913970947 C 1 16.96220207214355 2.310348510742188 20.12567520141602 4.689682006835938 22.50498390197754 C 7.068984985351563 24.88431167602539 10.23246002197266 26.19465637207031 13.59732818603516 26.19465637207031 L 120.2003860473633 26.19465637207031 C 123.5652542114258 26.19465637207031 126.7287292480469 24.88431167602539 129.1080322265625 22.50498390197754 C 131.4873657226563 20.12567520141602 132.7977142333984 16.96220207214355 132.7977142333984 13.59732913970947 C 132.7977142333984 10.23245620727539 131.4873657226563 7.06898307800293 129.1080322265625 4.689674377441406 C 126.7287292480469 2.310346603393555 123.5652542114258 1.000001907348633 120.2003860473633 1.000001907348633 L 13.59732818603516 1.000001907348633 M 13.59732818603516 1.9073486328125e-06 L 120.2003860473633 1.9073486328125e-06 C 127.7099838256836 1.9073486328125e-06 133.7977142333984 6.087728500366211 133.7977142333984 13.59732913970947 C 133.7977142333984 21.10692977905273 127.7099838256836 27.19465637207031 120.2003860473633 27.19465637207031 L 13.59732818603516 27.19465637207031 C 6.087730407714844 27.19465637207031 0 21.10692977905273 0 13.59732913970947 C 0 6.087728500366211 6.087730407714844 1.9073486328125e-06 13.59732818603516 1.9073486328125e-06 Z"/>
    </g>
    <g id="패스_6" data-name="패스 6" class="cls-31" transform="translate(1523.122 186)">
      <path class="cls-41" d="M 120.2003936767578 26.69466209411621 L 13.59732341766357 26.69466209411621 C 10.09890747070313 26.69466209411621 6.809890270233154 25.33229637145996 4.336123943328857 22.85854530334473 C 1.862373828887939 20.38477897644043 0.5000070929527283 17.09574508666992 0.5000070929527283 13.59732913970947 C 0.5000070929527283 10.09891223907471 1.862373828887939 6.809879302978516 4.336123943328857 4.336112499237061 C 6.809890270233154 1.862362504005432 10.09890747070313 0.4999957978725433 13.59732341766357 0.4999957978725433 L 120.2003936767578 0.4999957978725433 C 123.6988067626953 0.4999957978725433 126.9878387451172 1.862362504005432 129.4616088867188 4.336112499237061 C 131.9353637695313 6.809879302978516 133.2977294921875 10.09891223907471 133.2977294921875 13.59732913970947 C 133.2977294921875 17.09574508666992 131.9353637695313 20.38477897644043 129.4616088867188 22.85854530334473 C 126.9878387451172 25.33229637145996 123.6988067626953 26.69466209411621 120.2003936767578 26.69466209411621 Z"/>
      <path class="cls-44" d="M 13.59732818603516 1.000001907348633 C 10.23246002197266 1.000001907348633 7.068984985351563 2.310346603393555 4.689682006835938 4.689674377441406 C 2.310348510742188 7.06898307800293 1 10.23245620727539 1 13.59732913970947 C 1 16.96220207214355 2.310348510742188 20.12567520141602 4.689682006835938 22.50498390197754 C 7.068984985351563 24.88431167602539 10.23246002197266 26.19465637207031 13.59732818603516 26.19465637207031 L 120.2003860473633 26.19465637207031 C 123.5652542114258 26.19465637207031 126.7287292480469 24.88431167602539 129.1080322265625 22.50498390197754 C 131.4873657226563 20.12567520141602 132.7977142333984 16.96220207214355 132.7977142333984 13.59732913970947 C 132.7977142333984 10.23245620727539 131.4873657226563 7.06898307800293 129.1080322265625 4.689674377441406 C 126.7287292480469 2.310346603393555 123.5652542114258 1.000001907348633 120.2003860473633 1.000001907348633 L 13.59732818603516 1.000001907348633 M 13.59732818603516 1.9073486328125e-06 L 120.2003860473633 1.9073486328125e-06 C 127.7099838256836 1.9073486328125e-06 133.7977142333984 6.087728500366211 133.7977142333984 13.59732913970947 C 133.7977142333984 21.10692977905273 127.7099838256836 27.19465637207031 120.2003860473633 27.19465637207031 L 13.59732818603516 27.19465637207031 C 6.087730407714844 27.19465637207031 0 21.10692977905273 0 13.59732913970947 C 0 6.087728500366211 6.087730407714844 1.9073486328125e-06 13.59732818603516 1.9073486328125e-06 Z"/>
    </g>
    <text id="직접입력" class="cls-34" transform="translate(1310 205)"><tspan x="-32.024" y="0">직접입력</tspan></text>
    <line id="선_21" data-name="선 21" class="cls-4" x2="22.844" transform="translate(1497.639 199.597)"/>
    <g id="그룹_15" data-name="그룹 15" transform="translate(945.588 186)">
      <g id="사각형_14" data-name="사각형 14" class="cls-10" transform="translate(0.412)">
        <rect class="cls-41" width="67" height="27" rx="13"/>
        <rect class="cls-42" x="0.5" y="0.5" width="66" height="26" rx="12.5"/>
      </g>
      <text id="요일별" class="cls-34" transform="translate(32.412 19)"><tspan x="-24.016" y="0">요일별</tspan></text>
    </g>
    <g id="사각형_14-2" data-name="사각형 14" class="cls-10" transform="translate(946 186)">
      <rect class="cls-41" width="67" height="27" rx="13"/>
      <rect class="cls-42" x="0.5" y="0.5" width="66" height="26" rx="12.5"/>
    </g>
    <text id="요일별-2" data-name="요일별" class="cls-34" transform="translate(978 205)"><tspan x="-24.016" y="0">요일별</tspan></text>
    <g id="그룹_16" data-name="그룹 16" transform="translate(802 186)">
      <g id="사각형_16" data-name="사각형 16" class="cls-10">
        <rect class="cls-41" width="127" height="27" rx="13"/>
        <rect class="cls-42" x="0.5" y="0.5" width="126" height="26" rx="12.5"/>
      </g>
      <text id="연령별_성구분_" data-name="연령별(성구분)" class="cls-34" transform="translate(63 19)"><tspan x="-52.856" y="0">연령별</tspan><tspan class="cls-35" y="0">(</tspan><tspan y="0">성구분</tspan><tspan class="cls-35" y="0">)</tspan></text>
    </g>
    <g id="사각형_16-2" data-name="사각형 16" class="cls-10" transform="translate(802 186)">
      <rect class="cls-41" width="127" height="27" rx="13"/>
      <rect class="cls-42" x="0.5" y="0.5" width="126" height="26" rx="12.5"/>
    </g>
    <text id="연령별_성구분_2" data-name="연령별(성구분)" class="cls-34" transform="translate(865 205)"><tspan x="-52.856" y="0">연령별</tspan><tspan class="cls-35" y="0">(</tspan><tspan y="0">성구분</tspan><tspan class="cls-35" y="0">)</tspan></text>
    <text id="_2021-01-02" data-name="2021-01-02" class="cls-36" transform="translate(1428 206)"><tspan x="-41.832" y="0">2021-01-02</tspan></text>
    <text id="_2021-02-05" data-name="2021-02-05" class="cls-36" transform="translate(1590 206)"><tspan x="-41.832" y="0">2021-02-05</tspan></text>
    <line id="선_22" data-name="선 22" class="cls-37" x2="897" transform="translate(788.5 596.15)"/>
    <line id="선_23" data-name="선 23" class="cls-37" x2="897" transform="translate(788.5 481.197)"/>
    <line id="선_24" data-name="선 24" class="cls-37" x2="897" transform="translate(788.5 366.245)"/>
    <line id="선_25" data-name="선 25" class="cls-37" x2="897" transform="translate(788.5 251.292)"/>
    <g id="그룹_19" data-name="그룹 19" transform="translate(0 -21)">
      <g id="사각형_17" data-name="사각형 17" class="cls-10" transform="translate(240 623)">
        <rect class="cls-41" width="490" height="105"/>
        <rect class="cls-42" x="0.5" y="0.5" width="489" height="104"/>
      </g>
      <text id="해당_키워드_주검색층" data-name="해당 키워드 주검색층" class="cls-11" transform="translate(272 654)"><tspan x="0" y="0">해당</tspan><tspan class="cls-12" y="0"> </tspan><tspan y="0">키워드</tspan><tspan class="cls-12" y="0"> </tspan><tspan y="0">주검색층</tspan></text>
      <line id="선_26" data-name="선 26" class="cls-4" x2="489.472" transform="translate(240 671.442)"/>
      <text id="_30대" data-name="30대" class="cls-13" transform="translate(307 712)"><tspan x="-27.042" y="0">30</tspan><tspan class="cls-24" y="0">대</tspan></text>
      <text id="남성" class="cls-38" transform="translate(414 713)"><tspan x="-26.013" y="0">남성</tspan></text>
      <text id="주중" class="cls-38" transform="translate(533 713)"><tspan x="-26.013" y="0">주중</tspan></text>
      <text id="여름" class="cls-39" transform="translate(661 712)"><tspan x="-25.012" y="0">여름</tspan></text>
    </g>
    <g class="cls-45" transform="matrix(1, 0, 0, 1, 0, 0)">
      <line id="선_27-2" data-name="선 27" class="cls-4" x2="1920" transform="translate(0 986.5)"/>
    </g>
    <text id="_주_화선기획_사업자_등록번호_:_726-81-01774_통신판매신고번호_:_제_2020-서울마포-1174호_서울특별시_마포구_독막로_6길_9_2층_2173호_주_화선양행_사업자_등록번호_:_666-88-01919_통신판매신고번호_:_제_2021-서울서초-0123호_서울특별시_서초구_반포대로22길_35_서현빌딩_서현빌딩_2067호_대표자_:_민기태_문의_:_cs_hwaseon.com_" data-name="(주)화선기획 | 사업자 등록번호 : 726-81-01774  | 통신판매신고번호 : 제 2020-서울마포-1174호 | 서울특별시 마포구 독막로 6길 9, 2층 2173호
(주)화선양행 | 사업자 등록번호 : 666-88-01919  | 통신판매신고번호 : 제 2021-서울서초-0123호 | 서울특별시 서초구 반포대로22길 35 (서현빌딩) 서현빌딩 2067호
대표자 : 민기태 | 문의 : cs@hwaseon.com " class="cls-40" transform="translate(435 1015)"><tspan x="0" y="0">(</tspan><tspan class="cls-24" y="0">주</tspan><tspan y="0">)</tspan><tspan class="cls-24" y="0">화선기획</tspan><tspan y="0" xml:space="preserve"> | </tspan><tspan class="cls-24" y="0">사업자</tspan><tspan y="0"> </tspan><tspan class="cls-24" y="0">등록번호</tspan><tspan y="0" xml:space="preserve"> : 726-81-01774  | </tspan><tspan class="cls-24" y="0">통신판매신고번호</tspan><tspan y="0" xml:space="preserve"> : </tspan><tspan class="cls-24" y="0">제</tspan><tspan y="0" xml:space="preserve"> 2020-</tspan><tspan class="cls-24" y="0">서울마포</tspan><tspan y="0">-1174</tspan><tspan class="cls-24" y="0">호</tspan><tspan y="0" xml:space="preserve"> | </tspan><tspan class="cls-24" y="0">서울특별시</tspan><tspan y="0"> </tspan><tspan class="cls-24" y="0">마포구</tspan><tspan y="0"> </tspan><tspan class="cls-24" y="0">독막로</tspan><tspan y="0" xml:space="preserve"> 6</tspan><tspan class="cls-24" y="0">길</tspan><tspan y="0" xml:space="preserve"> 9, 2</tspan><tspan class="cls-24" y="0">층</tspan><tspan y="0" xml:space="preserve"> 2173</tspan><tspan class="cls-24" y="0">호</tspan><tspan y="0"></tspan><tspan x="0" y="25">(</tspan><tspan class="cls-24" y="25">주</tspan><tspan y="25">)</tspan><tspan class="cls-24" y="25">화선양행</tspan><tspan y="25" xml:space="preserve"> | </tspan><tspan class="cls-24" y="25">사업자</tspan><tspan y="25"> </tspan><tspan class="cls-24" y="25">등록번호</tspan><tspan y="25" xml:space="preserve"> : 666-88-01919  | </tspan><tspan class="cls-24" y="25">통신판매신고번호</tspan><tspan y="25" xml:space="preserve"> : </tspan><tspan class="cls-24" y="25">제</tspan><tspan y="25" xml:space="preserve"> 2021-</tspan><tspan class="cls-24" y="25">서울서초</tspan><tspan y="25">-0123</tspan><tspan class="cls-24" y="25">호</tspan><tspan y="25" xml:space="preserve"> | </tspan><tspan class="cls-24" y="25">서울특별시</tspan><tspan y="25"> </tspan><tspan class="cls-24" y="25">서초구</tspan><tspan y="25"> </tspan><tspan class="cls-24" y="25">반포대로</tspan><tspan y="25">22</tspan><tspan class="cls-24" y="25">길</tspan><tspan y="25" xml:space="preserve"> 35 (</tspan><tspan class="cls-24" y="25">서현빌딩</tspan><tspan y="25">) </tspan><tspan class="cls-24" y="25">서현빌딩</tspan><tspan y="25" xml:space="preserve"> 2067</tspan><tspan class="cls-24" y="25">호</tspan><tspan y="25"></tspan><tspan class="cls-24"><tspan x="0" y="50">대표자</tspan><tspan class="cls-35" y="50" xml:space="preserve"> : </tspan><tspan y="50">민기태</tspan><tspan class="cls-35" y="50" xml:space="preserve"> | </tspan><tspan y="50">문의</tspan><tspan class="cls-35" y="50" xml:space="preserve"> : cs@hwaseon.com </tspan></tspan></text>
  </g>
</svg>
