<svg xmlns="http://www.w3.org/2000/svg" xmlns:xlink="http://www.w3.org/1999/xlink" width="1920" height="1080" viewBox="0 0 1920 1080">
  <defs>
    <style>
      .cls-1, .cls-10, .cls-29, .cls-32, .cls-39, .cls-5 {
        fill: none;
      }

      .cls-2 {
        clip-path: url(#clip-웹_1920_1);
      }

      .cls-11, .cls-3, .cls-33, .cls-8, .cls-9 {
        fill: #fff;
      }

      .cls-16, .cls-21, .cls-34, .cls-38, .cls-4 {
        fill: #f63;
      }

      .cls-4 {
        font-size: 50px;
        font-family: NotoSans-ExtraBold, Noto Sans;
        font-weight: 800;
      }

      .cls-12, .cls-14, .cls-15, .cls-16, .cls-17, .cls-18, .cls-21, .cls-22, .cls-23, .cls-24, .cls-25, .cls-28, .cls-31, .cls-34, .cls-35, .cls-36, .cls-38, .cls-4, .cls-40, .cls-41, .cls-6 {
        letter-spacing: 0.001em;
      }

      .cls-11, .cls-5 {
        stroke: #707070;
      }

      .cls-6 {
        fill: rgba(0,0,0,0.47);
      }

      .cls-17, .cls-21, .cls-41, .cls-6 {
        font-size: 25px;
      }

      .cls-12, .cls-21, .cls-22, .cls-23, .cls-6 {
        font-family: MalgunGothicBold, Malgun Gothic;
      }

      .cls-7 {
        font-family: NotoSans-Bold, Noto Sans;
        font-weight: 700;
      }

      .cls-29, .cls-8 {
        stroke: #f63;
      }

      .cls-10, .cls-9 {
        stroke: #fff;
        stroke-width: 5px;
      }

      .cls-9 {
        stroke-linejoin: round;
      }

      .cls-10 {
        stroke-linecap: round;
      }

      .cls-12, .cls-18, .cls-23 {
        font-size: 21px;
      }

      .cls-13 {
        font-family: NotoSans-SemiBold, Noto Sans;
        font-weight: 600;
      }

      .cls-14, .cls-15, .cls-16, .cls-40 {
        font-size: 26px;
      }

      .cls-14, .cls-16, .cls-17, .cls-19, .cls-28 {
        font-family: SegoeUI, Segoe UI;
      }

      .cls-15, .cls-25, .cls-31, .cls-34, .cls-35, .cls-37, .cls-38 {
        font-family: NotoSans-Regular, Noto Sans;
      }

      .cls-18, .cls-24, .cls-26, .cls-36, .cls-40, .cls-41 {
        font-family: MalgunGothic, Malgun Gothic;
      }

      .cls-20 {
        isolation: isolate;
        clip-path: url(#clip-path);
      }

      .cls-22, .cls-24, .cls-25, .cls-28 {
        font-size: 20px;
      }

      .cls-23 {
        opacity: 0.64;
      }

      .cls-27 {
        fill: #ffcdbc;
      }

      .cls-29 {
        stroke-width: 3px;
      }

      .cls-30 {
        fill: #434343;
      }

      .cls-31, .cls-35, .cls-36 {
        fill: #656565;
      }

      .cls-31 {
        font-size: 11px;
      }

      .cls-32 {
        stroke: #ff8961;
        stroke-width: 1.5px;
      }

      .cls-34 {
        font-size: 15px;
      }

      .cls-35, .cls-36, .cls-38 {
        font-size: 16px;
      }

      .cls-39 {
        stroke: rgba(0,0,0,0.44);
        stroke-width: 0.5px;
      }

      .cls-42, .cls-43, .cls-44 {
        stroke: none;
      }

      .cls-43 {
        fill: #f63;
      }

      .cls-44 {
        fill: #707070;
      }

      .cls-45 {
        filter: url(#선_1);
      }

      .cls-46 {
        filter: url(#사각형_1);
      }
    </style>
    <filter id="사각형_1" x="-7" y="-6" width="1938" height="112" filterUnits="userSpaceOnUse">
      <feOffset dy="3" input="SourceAlpha"/>
      <feGaussianBlur stdDeviation="3" result="blur"/>
      <feFlood flood-color="#343232" flood-opacity="0.812"/>
      <feComposite operator="in" in2="blur"/>
      <feComposite in="SourceGraphic"/>
    </filter>
    <filter id="선_1" x="-9" y="178" width="1938" height="19" filterUnits="userSpaceOnUse">
      <feOffset dy="3" input="SourceAlpha"/>
      <feGaussianBlur stdDeviation="3" result="blur-2"/>
      <feFlood flood-opacity="0.161"/>
      <feComposite operator="in" in2="blur-2"/>
      <feComposite in="SourceGraphic"/>
    </filter>
    <clipPath id="clip-path">
      <rect class="cls-1" x="26" y="2" width="132" height="44"/>
    </clipPath>
    <clipPath id="clip-웹_1920_1">
      <rect width="1920" height="1080"/>
    </clipPath>
  </defs>
  <g id="웹_1920_1" data-name="웹 1920 – 1" class="cls-2">
    <rect class="cls-3" width="1920" height="1080"/>
    <g class="cls-46" transform="matrix(1, 0, 0, 1, 0, 0)">
      <rect id="사각형_1-2" data-name="사각형 1" class="cls-3" width="1920" height="94" transform="translate(2)"/>
    </g>
    <text id="hwASEON" class="cls-4" transform="translate(150 66)"><tspan x="-129.375" y="0">HWASEON</tspan></text>
    <g class="cls-45" transform="matrix(1, 0, 0, 1, 0, 0)">
      <line id="선_1-2" data-name="선 1" class="cls-5" x2="1920" transform="translate(0 184.5)"/>
    </g>
    <text id="제품_트래킹" data-name="제품 트래킹" class="cls-6" transform="translate(925 153)"><tspan x="-65.813" y="0">제품</tspan><tspan class="cls-7" y="0"> </tspan><tspan y="0">트래킹</tspan></text>
    <text id="대량키워드_요약" data-name="대량키워드 요약" class="cls-6" transform="translate(1304 153)"><tspan x="-90.837" y="0">대량키워드</tspan><tspan class="cls-7" y="0"> </tspan><tspan y="0">요약</tspan></text>
    <g id="사각형_2" data-name="사각형 2" class="cls-8" transform="translate(299 26)">
      <rect class="cls-42" width="433" height="42" rx="11"/>
      <rect class="cls-1" x="0.5" y="0.5" width="432" height="41" rx="10.5"/>
    </g>
    <g id="그룹_3" data-name="그룹 3" transform="translate(-147 -191)">
      <g id="그룹_2" data-name="그룹 2" transform="translate(891 228)">
        <g id="타원_1" data-name="타원 1" class="cls-9">
          <circle class="cls-42" cx="10" cy="10" r="10"/>
          <circle class="cls-1" cx="10" cy="10" r="7.5"/>
        </g>
        <line id="선_2" data-name="선 2" class="cls-10" x2="9.924" y2="9.924" transform="translate(18.076 16.658)"/>
      </g>
    </g>
    <g id="사각형_3" data-name="사각형 3" class="cls-11" transform="translate(240 220)">
      <rect class="cls-42" width="490" height="185"/>
      <rect class="cls-1" x="0.5" y="0.5" width="489" height="184"/>
    </g>
    <text id="최근_30일간_검색량" data-name="최근 30일간 검색량" class="cls-12" transform="translate(272 250)"><tspan x="0" y="0">최근</tspan><tspan class="cls-13" y="0" xml:space="preserve"> 30</tspan><tspan y="0">일간</tspan><tspan class="cls-13" y="0"> </tspan><tspan y="0">검색량</tspan></text>
    <line id="선_3" data-name="선 3" class="cls-5" x2="489.472" transform="translate(240 268.05)"/>
    <text id="PC" class="cls-14" transform="translate(303 309)"><tspan x="-15.343" y="0">PC</tspan></text>
    <text id="Mobile" class="cls-15" transform="translate(414 309)"><tspan x="-41.756" y="0">Mobile</tspan></text>
    <text id="Total" class="cls-16" transform="translate(533 309)"><tspan x="-27.379" y="0">Total</tspan></text>
    <text id="_20_" data-name="20% ↑" class="cls-17" transform="translate(659 364)"><tspan x="-33.082" y="0">20% ↑</tspan></text>
    <text id="전월_대비" data-name="전월 대비" class="cls-18" transform="translate(661 308)"><tspan x="-44.918" y="0">전월</tspan><tspan class="cls-19" y="0"> </tspan><tspan y="0">대비</tspan></text>
    <text id="_31_600" data-name="31,600" class="cls-16" transform="translate(532 364)"><tspan x="-37.922" y="0">31,600</tspan></text>
    <text id="_20_800" data-name="20,800" class="cls-14" transform="translate(413 364)"><tspan x="-37.922" y="0">20,800</tspan></text>
    <text id="_10_800" data-name="10,800" class="cls-14" transform="translate(306 364)"><tspan x="-37.922" y="0">10,800</tspan></text>
    <g id="스크롤_그룹_1" data-name="스크롤 그룹 1" class="cls-20" transform="translate(489 115)">
      <text id="키워드_분석" data-name="키워드 분석" class="cls-21" transform="translate(92 38)"><tspan x="-65.813" y="0">키워드</tspan><tspan class="cls-7" y="0"> </tspan><tspan y="0">분석</tspan></text>
    </g>
    <text id="폼클렌징" class="cls-22" transform="translate(358 56)"><tspan x="-40.03" y="0">폼클렌징</tspan></text>
    <g id="사각형_6" data-name="사각형 6" class="cls-11" transform="translate(240 431)">
      <rect class="cls-42" width="490" height="185"/>
      <rect class="cls-1" x="0.5" y="0.5" width="489" height="184"/>
    </g>
    <text id="최근_30일간_컨텐츠_발행량" data-name="최근 30일간 컨텐츠 발행량" class="cls-12" transform="translate(272 461)"><tspan x="0" y="0">최근</tspan><tspan class="cls-13" y="0" xml:space="preserve"> 30</tspan><tspan y="0">일간</tspan><tspan class="cls-13" y="0"> </tspan><tspan y="0">컨텐츠</tspan><tspan class="cls-13" y="0"> </tspan><tspan y="0">발행량</tspan></text>
    <path id="패스_5" data-name="패스 5" class="cls-5" d="M0,0H489.472" transform="translate(240 479)"/>
    <text id="blog" class="cls-14" transform="translate(307 526)"><tspan x="-26.102" y="0">blog</tspan></text>
    <text id="cafe" class="cls-14" transform="translate(414 526)"><tspan x="-23.525" y="0">cafe</tspan></text>
    <text id="Total-2" data-name="Total" class="cls-16" transform="translate(533 526)"><tspan x="-27.379" y="0">Total</tspan></text>
    <text id="_30_" data-name="30% ↑" class="cls-17" transform="translate(659 582)"><tspan x="-33.082" y="0">30% ↑</tspan></text>
    <text id="전월_대비-2" data-name="전월 대비" class="cls-18" transform="translate(661 525)"><tspan x="-44.918" y="0">전월</tspan><tspan class="cls-19" y="0"> </tspan><tspan y="0">대비</tspan></text>
    <text id="_31_600-2" data-name="31,600" class="cls-16" transform="translate(532 582)"><tspan x="-37.922" y="0">31,600</tspan></text>
    <text id="_20_800-2" data-name="20,800" class="cls-14" transform="translate(413 582)"><tspan x="-37.922" y="0">20,800</tspan></text>
    <text id="_10_800-2" data-name="10,800" class="cls-14" transform="translate(306 582)"><tspan x="-37.922" y="0">10,800</tspan></text>
    <text id="연관검색어_현황_월평균_top_20_연관도_" data-name="연관검색어 현황 (월평균)  top 20 (연관도)" class="cls-23" transform="translate(270 807)"><tspan x="0" y="0">연관검색어</tspan><tspan class="cls-13" y="0"> </tspan><tspan y="0">현황</tspan><tspan class="cls-13" y="0" xml:space="preserve"> (</tspan><tspan y="0">월평균</tspan><tspan class="cls-13" y="0" xml:space="preserve">)  top 20 (</tspan><tspan y="0">연관도</tspan><tspan class="cls-13" y="0">)</tspan></text>
    <line id="선_5" data-name="선 5" class="cls-5" x2="1440" transform="translate(240 823.5)"/>
    <text id="키워드" class="cls-24" transform="translate(345 869)"><tspan x="-30.02" y="0">키워드</tspan></text>
    <text id="PC-2" data-name="PC" class="cls-25" transform="translate(486 868)"><tspan x="-12.38" y="0">PC</tspan></text>
    <text id="Mobile-2" data-name="Mobile" class="cls-25" transform="translate(653 868)"><tspan x="-32.12" y="0">Mobile</tspan></text>
    <text id="Total-3" data-name="Total" class="cls-25" transform="translate(793 868)"><tspan x="-22.75" y="0">Total</tspan></text>
    <text id="PC_클릭수" data-name="PC  클릭수" class="cls-25" transform="translate(960 869)"><tspan x="-47.63" y="0" xml:space="preserve">PC  </tspan><tspan class="cls-26" y="0">클릭수</tspan></text>
    <text id="Mobile_클릭수" data-name="Mobile 클릭수" class="cls-25" transform="translate(1165 869)"><tspan x="-64.76" y="0">Mobile </tspan><tspan class="cls-26" y="0">클릭수</tspan></text>
    <text id="PC_CPC_1위" data-name="PC CPC 1위" class="cls-25" transform="translate(1370 869)"><tspan x="-52.06" y="0">PC CPC 1</tspan><tspan class="cls-26" y="0">위</tspan></text>
    <text id="Mobile_CPC_1위" data-name="Mobile CPC 1위" class="cls-25" transform="translate(1580 869)"><tspan x="-71.8" y="0">Mobile CPC 1</tspan><tspan class="cls-26" y="0">위</tspan></text>
    <g id="그룹_17" data-name="그룹 17">
      <rect id="사각형_7" data-name="사각형 7" class="cls-27" width="1440" height="42" transform="translate(240 892)"/>
      <text id="폼클렌징-2" data-name="폼클렌징" class="cls-24" transform="translate(345 920)"><tspan x="-40.03" y="0">폼클렌징</tspan></text>
      <text id="클렌징폼" class="cls-24" transform="translate(345 971)"><tspan x="-40.03" y="0">클렌징폼</tspan></text>
      <text id="폼클렌징추천" class="cls-24" transform="translate(345 1022)"><tspan x="-60.05" y="0">폼클렌징추천</tspan></text>
      <text id="약산성_폼클렌징" data-name="약산성 폼클렌징" class="cls-24" transform="translate(345 1073)"><tspan x="-72.809" y="0">약산성</tspan><tspan class="cls-19" y="0"> </tspan><tspan y="0">폼클렌징</tspan></text>
      <text id="_11_000" data-name="11,000" class="cls-28" transform="translate(503 922)"><tspan x="-29.171" y="0">11,000</tspan></text>
      <text id="_11_000-2" data-name="11,000" class="cls-28" transform="translate(503 973)"><tspan x="-29.171" y="0">11,000</tspan></text>
      <text id="_11_000-3" data-name="11,000" class="cls-28" transform="translate(503 1024)"><tspan x="-29.171" y="0">11,000</tspan></text>
      <text id="_11_000-4" data-name="11,000" class="cls-28" transform="translate(503 1075)"><tspan x="-29.171" y="0">11,000</tspan></text>
      <text id="_21_600" data-name="21,600" class="cls-28" transform="translate(653 922)"><tspan x="-29.171" y="0">21,600</tspan></text>
      <text id="_21_600-2" data-name="21,600" class="cls-28" transform="translate(653 973)"><tspan x="-29.171" y="0">21,600</tspan></text>
      <text id="_21_600-3" data-name="21,600" class="cls-28" transform="translate(653 1024)"><tspan x="-29.171" y="0">21,600</tspan></text>
      <text id="_21_600-4" data-name="21,600" class="cls-28" transform="translate(653 1075)"><tspan x="-29.171" y="0">21,600</tspan></text>
      <text id="_31_600-3" data-name="31,600" class="cls-28" transform="translate(793 922)"><tspan x="-29.171" y="0">31,600</tspan></text>
      <text id="_31_600-4" data-name="31,600" class="cls-28" transform="translate(793 973)"><tspan x="-29.171" y="0">31,600</tspan></text>
      <text id="_31_600-5" data-name="31,600" class="cls-28" transform="translate(793 1024)"><tspan x="-29.171" y="0">31,600</tspan></text>
      <text id="_31_600-6" data-name="31,600" class="cls-28" transform="translate(793 1075)"><tspan x="-29.171" y="0">31,600</tspan></text>
      <text id="_103_0.52_" data-name="103 (0.52%)" class="cls-28" transform="translate(960 922)"><tspan x="-51.57" y="0">103 (0.52%)</tspan></text>
      <text id="_103_0.52_2" data-name="103 (0.52%)" class="cls-28" transform="translate(960 973)"><tspan x="-51.57" y="0">103 (0.52%)</tspan></text>
      <text id="_103_0.52_3" data-name="103 (0.52%)" class="cls-28" transform="translate(960 1024)"><tspan x="-51.57" y="0">103 (0.52%)</tspan></text>
      <text id="_103_0.52_4" data-name="103 (0.52%)" class="cls-28" transform="translate(960 1075)"><tspan x="-51.57" y="0">103 (0.52%)</tspan></text>
      <text id="_103_0.52_5" data-name="103 (0.52%)" class="cls-28" transform="translate(1165 921)"><tspan x="-51.57" y="0">103 (0.52%)</tspan></text>
      <text id="_103_0.52_6" data-name="103 (0.52%)" class="cls-28" transform="translate(1165 972)"><tspan x="-51.57" y="0">103 (0.52%)</tspan></text>
      <text id="_103_0.52_7" data-name="103 (0.52%)" class="cls-28" transform="translate(1165 1023)"><tspan x="-51.57" y="0">103 (0.52%)</tspan></text>
      <text id="_103_0.52_8" data-name="103 (0.52%)" class="cls-28" transform="translate(1165 1074)"><tspan x="-51.57" y="0">103 (0.52%)</tspan></text>
      <text id="_1200원" data-name="1200원" class="cls-28" transform="translate(1369 922)"><tspan x="-31.603" y="0">1200</tspan><tspan class="cls-26" y="0">원</tspan></text>
      <text id="_110원" data-name="110원" class="cls-28" transform="translate(1369 973)"><tspan x="-26.202" y="0">110</tspan><tspan class="cls-26" y="0">원</tspan></text>
      <text id="_200원" data-name="200원" class="cls-28" transform="translate(1369 1024)"><tspan x="-26.202" y="0">200</tspan><tspan class="cls-26" y="0">원</tspan></text>
      <text id="_400원" data-name="400원" class="cls-28" transform="translate(1369 1075)"><tspan x="-26.202" y="0">400</tspan><tspan class="cls-26" y="0">원</tspan></text>
      <text id="_1200원-2" data-name="1200원" class="cls-28" transform="translate(1580 923)"><tspan x="-31.603" y="0">1200</tspan><tspan class="cls-26" y="0">원</tspan></text>
      <text id="_110원-2" data-name="110원" class="cls-28" transform="translate(1580 974)"><tspan x="-26.202" y="0">110</tspan><tspan class="cls-26" y="0">원</tspan></text>
      <text id="_200원-2" data-name="200원" class="cls-28" transform="translate(1580 1025)"><tspan x="-26.202" y="0">200</tspan><tspan class="cls-26" y="0">원</tspan></text>
      <text id="_400원-2" data-name="400원" class="cls-28" transform="translate(1580 1076)"><tspan x="-26.202" y="0">400</tspan><tspan class="cls-26" y="0">원</tspan></text>
      <text id="클렌징오일" class="cls-24" transform="translate(345 1124)"><tspan x="-50.04" y="0">클렌징오일</tspan></text>
      <text id="_11_000-5" data-name="11,000" class="cls-28" transform="translate(503 1126)"><tspan x="-29.171" y="0">11,000</tspan></text>
      <text id="_21_600-5" data-name="21,600" class="cls-28" transform="translate(653 1126)"><tspan x="-29.171" y="0">21,600</tspan></text>
      <text id="_31_600-7" data-name="31,600" class="cls-28" transform="translate(793 1126)"><tspan x="-29.171" y="0">31,600</tspan></text>
      <text id="_0.09_" data-name="0.09%" class="cls-28" transform="translate(960 1126)"><tspan x="-26.563" y="0">0.09%</tspan></text>
      <text id="_0.33_" data-name="0.33%" class="cls-28" transform="translate(1165 1125)"><tspan x="-26.563" y="0">0.33%</tspan></text>
      <text id="_600원" data-name="600원" class="cls-28" transform="translate(1369 1126)"><tspan x="-26.202" y="0">600</tspan><tspan class="cls-26" y="0">원</tspan></text>
      <text id="_600원-2" data-name="600원" class="cls-28" transform="translate(1580 1127)"><tspan x="-26.202" y="0">600</tspan><tspan class="cls-26" y="0">원</tspan></text>
    </g>
    <path id="패스_1" data-name="패스 1" class="cls-29" d="M0,0H144" transform="translate(509.5 184.5)"/>
    <path id="다각형_1" data-name="다각형 1" class="cls-30" d="M7.162,4.289a2,2,0,0,1,3.677,0l5.967,13.923A2,2,0,0,1,14.967,21H3.033a2,2,0,0,1-1.838-2.788Z" transform="translate(380 850)"/>
    <path id="다각형_2" data-name="다각형 2" class="cls-30" d="M7.162,4.289a2,2,0,0,1,3.677,0l5.967,13.923A2,2,0,0,1,14.967,21H3.033a2,2,0,0,1-1.838-2.788Z" transform="translate(818 850)"/>
    <path id="다각형_3" data-name="다각형 3" class="cls-30" d="M7.162,4.289a2,2,0,0,1,3.677,0l5.967,13.923A2,2,0,0,1,14.967,21H3.033a2,2,0,0,1-1.838-2.788Z" transform="translate(1010 850)"/>
    <path id="다각형_4" data-name="다각형 4" class="cls-30" d="M7.162,4.289a2,2,0,0,1,3.677,0l5.967,13.923A2,2,0,0,1,14.967,21H3.033a2,2,0,0,1-1.838-2.788Z" transform="translate(1230 850)"/>
    <path id="다각형_5" data-name="다각형 5" class="cls-30" d="M7.162,4.289a2,2,0,0,1,3.677,0l5.967,13.923A2,2,0,0,1,14.967,21H3.033a2,2,0,0,1-1.838-2.788Z" transform="translate(1425 850)"/>
    <path id="다각형_6" data-name="다각형 6" class="cls-30" d="M7.162,4.289a2,2,0,0,1,3.677,0l5.967,13.923A2,2,0,0,1,14.967,21H3.033a2,2,0,0,1-1.838-2.788Z" transform="translate(1653 850)"/>
    <path id="다각형_7" data-name="다각형 7" class="cls-30" d="M7.162,4.289a2,2,0,0,1,3.677,0l5.967,13.923A2,2,0,0,1,14.967,21H3.033a2,2,0,0,1-1.838-2.788Z" transform="translate(686 850)"/>
    <path id="다각형_8" data-name="다각형 8" class="cls-30" d="M7.162,4.289a2,2,0,0,1,3.677,0l5.967,13.923A2,2,0,0,1,14.967,21H3.033a2,2,0,0,1-1.838-2.788Z" transform="translate(501 850)"/>
    <line id="선_6" data-name="선 6" class="cls-5" x1="1" y2="486.661" transform="translate(802.5 268.05)"/>
    <line id="선_7" data-name="선 7" class="cls-5" x2="884" transform="translate(795.5 755.369)"/>
    <text id="_35_000" data-name="35,000" class="cls-31" transform="translate(766.5 758.647)"><tspan x="-17.231" y="0">35,000</tspan></text>
    <text id="_40_000" data-name="40,000" class="cls-31" transform="translate(766.5 651.589)"><tspan x="-17.231" y="0">40,000</tspan></text>
    <text id="_45_000" data-name="45,000" class="cls-31" transform="translate(766.5 529.269)"><tspan x="-17.231" y="0">45,000</tspan></text>
    <text id="_50_000" data-name="50,000" class="cls-31" transform="translate(766.5 409.522)"><tspan x="-17.231" y="0">50,000</tspan></text>
    <text id="_55_000" data-name="55,000" class="cls-31" transform="translate(766.5 289.861)"><tspan x="-17.231" y="0">55,000</tspan></text>
    <line id="선_12" data-name="선 12" class="cls-32" y1="81.05" x2="100.5" transform="translate(902.5 444.831)"/>
    <line id="선_14" data-name="선 14" class="cls-32" x1="107.5" y1="175.472" transform="translate(1002.5 445.207)"/>
    <line id="선_15" data-name="선 15" class="cls-32" y1="352.679" x2="99.111" transform="translate(1110.5 268.05)"/>
    <line id="선_16" data-name="선 16" class="cls-32" x1="101.761" y1="461.879" transform="translate(1210 268.05)"/>
    <line id="선_17" data-name="선 17" class="cls-32" y1="425.532" x2="101.91" transform="translate(1312 304.396)"/>
    <line id="선_18" data-name="선 18" class="cls-32" x1="103.5" y1="322.874" transform="translate(1414 304.396)"/>
    <line id="선_19" data-name="선 19" class="cls-32" y1="92.519" x2="103.5" transform="translate(1516 534.208)"/>
    <line id="선_20" data-name="선 20" class="cls-32" x1="60" y1="68.288" transform="translate(1619.5 531.315)"/>
    <line id="선_13" data-name="선 13" class="cls-32" y1="133.272" x2="100" transform="translate(803 525.302)"/>
    <g id="패스_2" data-name="패스 2" class="cls-33" transform="translate(1029.347 220)">
      <path class="cls-42" d="M 45.14313125610352 26.69465827941895 L 13.59733009338379 26.69465827941895 C 10.09890937805176 26.69465827941895 6.809879779815674 25.33229827880859 4.336119651794434 22.85853958129883 C 1.862359762191772 20.38477897644043 0.4999997317790985 17.09574890136719 0.4999997317790985 13.59732913970947 C 0.4999997317790985 10.09890937805176 1.862359762191772 6.809879302978516 4.336119651794434 4.336119174957275 C 6.809879779815674 1.862359166145325 10.09890937805176 0.4999991357326508 13.59733009338379 0.4999991357326508 L 45.14313125610352 0.4999991357326508 C 48.64154815673828 0.4999991357326508 51.93058013916016 1.862359166145325 54.40433883666992 4.336119174957275 C 56.87810134887695 6.809879302978516 58.24045944213867 10.09890937805176 58.24045944213867 13.59732913970947 C 58.24045944213867 17.09574890136719 56.87810134887695 20.38477897644043 54.40433883666992 22.85853958129883 C 51.93058013916016 25.33229827880859 48.64154815673828 26.69465827941895 45.14313125610352 26.69465827941895 Z"/>
      <path class="cls-43" d="M 13.59732818603516 1 C 10.23246002197266 1 7.068988800048828 2.310348510742188 4.689670562744141 4.689668655395508 C 2.310348510742188 7.068988800048828 1 10.23246002197266 1 13.59732913970947 C 1 16.96220016479492 2.310348510742188 20.12566947937012 4.689670562744141 22.50498962402344 C 7.068988800048828 24.88430976867676 10.23246002197266 26.19465827941895 13.59732818603516 26.19465827941895 L 45.14312744140625 26.19465827941895 C 48.50799942016602 26.19465827941895 51.67147064208984 24.88430976867676 54.05078887939453 22.50498962402344 C 56.43011093139648 20.12566947937012 57.74045944213867 16.96220016479492 57.74045944213867 13.59732913970947 C 57.74045944213867 10.23246002197266 56.43011093139648 7.068988800048828 54.05078887939453 4.689668655395508 C 51.67147064208984 2.310348510742188 48.50799942016602 1 45.14312744140625 1 L 13.59732818603516 1 M 13.59732818603516 0 L 45.14312744140625 0 C 52.65272903442383 0 58.74045944213867 6.087728500366211 58.74045944213867 13.59732913970947 C 58.74045944213867 21.10692977905273 52.65272903442383 27.19465827941895 45.14312744140625 27.19465827941895 L 13.59732818603516 27.19465827941895 C 6.087730407714844 27.19465827941895 0 21.10692977905273 0 13.59732913970947 C 0 6.087728500366211 6.087730407714844 0 13.59732818603516 0 Z"/>
    </g>
    <g id="패스_4" data-name="패스 4" class="cls-33" transform="translate(1029.347 220)">
      <path class="cls-42" d="M 45.14313125610352 26.69465827941895 L 13.59733009338379 26.69465827941895 C 10.09890937805176 26.69465827941895 6.809879779815674 25.33229827880859 4.336119651794434 22.85853958129883 C 1.862359762191772 20.38477897644043 0.4999997317790985 17.09574890136719 0.4999997317790985 13.59732913970947 C 0.4999997317790985 10.09890937805176 1.862359762191772 6.809879302978516 4.336119651794434 4.336119174957275 C 6.809879779815674 1.862359166145325 10.09890937805176 0.4999991357326508 13.59733009338379 0.4999991357326508 L 45.14313125610352 0.4999991357326508 C 48.64154815673828 0.4999991357326508 51.93058013916016 1.862359166145325 54.40433883666992 4.336119174957275 C 56.87810134887695 6.809879302978516 58.24045944213867 10.09890937805176 58.24045944213867 13.59732913970947 C 58.24045944213867 17.09574890136719 56.87810134887695 20.38477897644043 54.40433883666992 22.85853958129883 C 51.93058013916016 25.33229827880859 48.64154815673828 26.69465827941895 45.14313125610352 26.69465827941895 Z"/>
      <path class="cls-43" d="M 13.59732818603516 1 C 10.23246002197266 1 7.068988800048828 2.310348510742188 4.689670562744141 4.689668655395508 C 2.310348510742188 7.068988800048828 1 10.23246002197266 1 13.59732913970947 C 1 16.96220016479492 2.310348510742188 20.12566947937012 4.689670562744141 22.50498962402344 C 7.068988800048828 24.88430976867676 10.23246002197266 26.19465827941895 13.59732818603516 26.19465827941895 L 45.14312744140625 26.19465827941895 C 48.50799942016602 26.19465827941895 51.67147064208984 24.88430976867676 54.05078887939453 22.50498962402344 C 56.43011093139648 20.12566947937012 57.74045944213867 16.96220016479492 57.74045944213867 13.59732913970947 C 57.74045944213867 10.23246002197266 56.43011093139648 7.068988800048828 54.05078887939453 4.689668655395508 C 51.67147064208984 2.310348510742188 48.50799942016602 1 45.14312744140625 1 L 13.59732818603516 1 M 13.59732818603516 0 L 45.14312744140625 0 C 52.65272903442383 0 58.74045944213867 6.087728500366211 58.74045944213867 13.59732913970947 C 58.74045944213867 21.10692977905273 52.65272903442383 27.19465827941895 45.14312744140625 27.19465827941895 L 13.59732818603516 27.19465827941895 C 6.087730407714844 27.19465827941895 0 21.10692977905273 0 13.59732913970947 C 0 6.087728500366211 6.087730407714844 0 13.59732818603516 0 Z"/>
    </g>
    <text id="_1개월" data-name="1개월" class="cls-34" transform="translate(1057 238)"><tspan x="-19.305" y="0">1</tspan><tspan class="cls-26" y="0">개월</tspan></text>
    <g id="사각형_9" data-name="사각형 9" class="cls-11" transform="translate(1104 220)">
      <rect class="cls-42" width="59" height="27" rx="13"/>
      <rect class="cls-1" x="0.5" y="0.5" width="58" height="26" rx="12.5"/>
    </g>
    <g id="사각형_10" data-name="사각형 10" class="cls-11" transform="translate(1179 220)">
      <rect class="cls-42" width="59" height="27" rx="13"/>
      <rect class="cls-1" x="0.5" y="0.5" width="58" height="26" rx="12.5"/>
    </g>
    <text id="_1년" data-name="1년" class="cls-35" transform="translate(1134 239)"><tspan x="-12.584" y="0">1</tspan><tspan class="cls-26" y="0">년</tspan></text>
    <text id="_1년-2" data-name="1년" class="cls-35" transform="translate(1134 239)"><tspan x="-12.584" y="0">1</tspan><tspan class="cls-26" y="0">년</tspan></text>
    <text id="_1년-3" data-name="1년" class="cls-35" transform="translate(1413 239)"><tspan x="-12.584" y="0">1</tspan><tspan class="cls-26" y="0">년</tspan></text>
    <text id="_5년" data-name="5년" class="cls-35" transform="translate(1209 239)"><tspan x="-12.584" y="0">5</tspan><tspan class="cls-26" y="0">년</tspan></text>
    <g id="패스_3" data-name="패스 3" class="cls-33" transform="translate(1361.122 220)">
      <path class="cls-42" d="M 120.2003936767578 26.69466209411621 L 13.59732341766357 26.69466209411621 C 10.09890747070313 26.69466209411621 6.809890270233154 25.33229637145996 4.336123943328857 22.85854530334473 C 1.862373828887939 20.38477897644043 0.5000070929527283 17.09574508666992 0.5000070929527283 13.59732913970947 C 0.5000070929527283 10.09891223907471 1.862373828887939 6.809879302978516 4.336123943328857 4.336112499237061 C 6.809890270233154 1.862362504005432 10.09890747070313 0.4999957978725433 13.59732341766357 0.4999957978725433 L 120.2003936767578 0.4999957978725433 C 123.6988067626953 0.4999957978725433 126.9878387451172 1.862362504005432 129.4616088867188 4.336112499237061 C 131.9353637695313 6.809879302978516 133.2977294921875 10.09891223907471 133.2977294921875 13.59732913970947 C 133.2977294921875 17.09574508666992 131.9353637695313 20.38477897644043 129.4616088867188 22.85854530334473 C 126.9878387451172 25.33229637145996 123.6988067626953 26.69466209411621 120.2003936767578 26.69466209411621 Z"/>
      <path class="cls-44" d="M 13.59732818603516 1.000001907348633 C 10.23246002197266 1.000001907348633 7.068984985351563 2.310346603393555 4.689682006835938 4.689674377441406 C 2.310348510742188 7.06898307800293 1 10.23245620727539 1 13.59732913970947 C 1 16.96220207214355 2.310348510742188 20.12567520141602 4.689682006835938 22.50498390197754 C 7.068984985351563 24.88431167602539 10.23246002197266 26.19465637207031 13.59732818603516 26.19465637207031 L 120.2003860473633 26.19465637207031 C 123.5652542114258 26.19465637207031 126.7287292480469 24.88431167602539 129.1080322265625 22.50498390197754 C 131.4873657226563 20.12567520141602 132.7977142333984 16.96220207214355 132.7977142333984 13.59732913970947 C 132.7977142333984 10.23245620727539 131.4873657226563 7.06898307800293 129.1080322265625 4.689674377441406 C 126.7287292480469 2.310346603393555 123.5652542114258 1.000001907348633 120.2003860473633 1.000001907348633 L 13.59732818603516 1.000001907348633 M 13.59732818603516 1.9073486328125e-06 L 120.2003860473633 1.9073486328125e-06 C 127.7099838256836 1.9073486328125e-06 133.7977142333984 6.087728500366211 133.7977142333984 13.59732913970947 C 133.7977142333984 21.10692977905273 127.7099838256836 27.19465637207031 120.2003860473633 27.19465637207031 L 13.59732818603516 27.19465637207031 C 6.087730407714844 27.19465637207031 0 21.10692977905273 0 13.59732913970947 C 0 6.087728500366211 6.087730407714844 1.9073486328125e-06 13.59732818603516 1.9073486328125e-06 Z"/>
    </g>
    <g id="사각형_12" data-name="사각형 12" class="cls-11" transform="translate(1523 220)">
      <rect class="cls-42" width="134" height="27" rx="13"/>
      <rect class="cls-1" x="0.5" y="0.5" width="133" height="26" rx="12.5"/>
    </g>
    <text id="직접입력" class="cls-36" transform="translate(1310 239)"><tspan x="-32.024" y="0">직접입력</tspan></text>
    <line id="선_21" data-name="선 21" class="cls-5" x2="22.844" transform="translate(1497.639 233.597)"/>
    <g id="그룹_15" data-name="그룹 15" transform="translate(945.588 220)">
      <g id="사각형_14" data-name="사각형 14" class="cls-11" transform="translate(0.412)">
        <rect class="cls-42" width="67" height="27" rx="13"/>
        <rect class="cls-1" x="0.5" y="0.5" width="66" height="26" rx="12.5"/>
      </g>
      <text id="요일별" class="cls-36" transform="translate(32.412 19)"><tspan x="-24.016" y="0">요일별</tspan></text>
    </g>
    <g id="사각형_14-2" data-name="사각형 14" class="cls-11" transform="translate(946 220)">
      <rect class="cls-42" width="67" height="27" rx="13"/>
      <rect class="cls-1" x="0.5" y="0.5" width="66" height="26" rx="12.5"/>
    </g>
    <text id="요일별-2" data-name="요일별" class="cls-36" transform="translate(978 239)"><tspan x="-24.016" y="0">요일별</tspan></text>
    <g id="그룹_16" data-name="그룹 16" transform="translate(802 220)">
      <g id="사각형_16" data-name="사각형 16" class="cls-11">
        <rect class="cls-42" width="127" height="27" rx="13"/>
        <rect class="cls-1" x="0.5" y="0.5" width="126" height="26" rx="12.5"/>
      </g>
      <text id="연령별_성구분_" data-name="연령별(성구분)" class="cls-36" transform="translate(63 19)"><tspan x="-52.856" y="0">연령별</tspan><tspan class="cls-37" y="0">(</tspan><tspan y="0">성구분</tspan><tspan class="cls-37" y="0">)</tspan></text>
    </g>
    <g id="사각형_16-2" data-name="사각형 16" class="cls-11" transform="translate(802 220)">
      <rect class="cls-42" width="127" height="27" rx="13"/>
      <rect class="cls-1" x="0.5" y="0.5" width="126" height="26" rx="12.5"/>
    </g>
    <text id="연령별_성구분_2" data-name="연령별(성구분)" class="cls-36" transform="translate(865 239)"><tspan x="-52.856" y="0">연령별</tspan><tspan class="cls-37" y="0">(</tspan><tspan y="0">성구분</tspan><tspan class="cls-37" y="0">)</tspan></text>
    <text id="_2021-01-02" data-name="2021-01-02" class="cls-38" transform="translate(1428 239)"><tspan x="-41.832" y="0">2021-01-02</tspan></text>
    <text id="_2021-01-02-2" data-name="2021-01-02" class="cls-38" transform="translate(1428 239)"><tspan x="-41.832" y="0">2021-01-02</tspan></text>
    <line id="선_22" data-name="선 22" class="cls-39" x2="897" transform="translate(788.5 645.804)"/>
    <line id="선_23" data-name="선 23" class="cls-39" x2="897" transform="translate(788.5 525.882)"/>
    <line id="선_24" data-name="선 24" class="cls-39" x2="897" transform="translate(788.5 405.96)"/>
    <line id="선_25" data-name="선 25" class="cls-39" x2="897" transform="translate(788.5 286.038)"/>
    <g id="사각형_17" data-name="사각형 17" class="cls-11" transform="translate(240 657)">
      <rect class="cls-42" width="490" height="105"/>
      <rect class="cls-1" x="0.5" y="0.5" width="489" height="104"/>
    </g>
    <text id="해당_키워드_주검색층" data-name="해당 키워드 주검색층" class="cls-12" transform="translate(272 688)"><tspan x="0" y="0">해당</tspan><tspan class="cls-13" y="0"> </tspan><tspan y="0">키워드</tspan><tspan class="cls-13" y="0"> </tspan><tspan y="0">주검색층</tspan></text>
    <line id="선_26" data-name="선 26" class="cls-5" x2="489.472" transform="translate(240 705.442)"/>
    <text id="_30대" data-name="30대" class="cls-14" transform="translate(307 746)"><tspan x="-27.042" y="0">30</tspan><tspan class="cls-26" y="0">대</tspan></text>
    <text id="남성" class="cls-40" transform="translate(414 747)"><tspan x="-26.013" y="0">남성</tspan></text>
    <text id="주중" class="cls-40" transform="translate(533 747)"><tspan x="-26.013" y="0">주중</tspan></text>
    <text id="여름" class="cls-41" transform="translate(661 746)"><tspan x="-25.012" y="0">여름</tspan></text>
  </g>
</svg>
